<svg width="20" height="20" viewBox="0 0 20 20" fill="none" xmlns="http://www.w3.org/2000/svg">
<path d="M10.3082 1.7917L17.8082 4.79167C18.0998 4.90834 18.3332 5.25834 18.3332 5.56667V7.22226C18.3332 7.6806 17.9582 8.0556 17.4998 8.0556H2.49984C2.0415 8.0556 1.6665 7.6806 1.6665 7.22226V5.56667C1.6665 5.25834 1.89984 4.90834 2.1915 4.79167L9.6915 1.7917C9.85817 1.72503 10.1415 1.72503 10.3082 1.7917Z" stroke="#BEBAB9" stroke-miterlimit="10" stroke-linecap="round" stroke-linejoin="round"/>
<path d="M18.3332 18.3333H1.6665V15.8333C1.6665 15.375 2.0415 15 2.49984 15H17.4998C17.9582 15 18.3332 15.375 18.3332 15.8333V18.3333Z" stroke="#BEBAB9" stroke-miterlimit="10" stroke-linecap="round" stroke-linejoin="round"/>
<path d="M3.3335 14.4444V8.61108" stroke="#BEBAB9" stroke-miterlimit="10" stroke-linecap="round" stroke-linejoin="round"/>
<path d="M6.6665 14.4444V8.61108" stroke="#BEBAB9" stroke-miterlimit="10" stroke-linecap="round" stroke-linejoin="round"/>
<path d="M10 14.4444V8.61108" stroke="#BEBAB9" stroke-miterlimit="10" stroke-linecap="round" stroke-linejoin="round"/>
<path d="M13.3335 14.4444V8.61108" stroke="#BEBAB9" stroke-miterlimit="10" stroke-linecap="round" stroke-linejoin="round"/>
<path d="M16.6665 14.4444V8.61108" stroke="#BEBAB9" stroke-miterlimit="10" stroke-linecap="round" stroke-linejoin="round"/>
<path d="M0.833496 18.3333H19.1668" stroke="#BEBAB9" stroke-miterlimit="10" stroke-linecap="round" stroke-linejoin="round"/>
</svg>
