<svg width="18" height="18" viewBox="0 0 18 18" fill="none" xmlns="http://www.w3.org/2000/svg">
<path d="M9.6675 4.40991H3.83249C2.54999 4.40991 1.5 5.4599 1.5 6.7424V15.2624C1.5 16.3499 2.28 16.8149 3.2325 16.2824L6.17999 14.6399C6.49499 14.4674 7.005 14.4674 7.3125 14.6399L10.26 16.2824C11.2125 16.8149 11.9925 16.3499 11.9925 15.2624V6.7424C12 5.4599 10.95 4.40991 9.6675 4.40991Z" stroke="#0B1E29" stroke-linecap="round" stroke-linejoin="round"/>
<path d="M16.5 3.83249V12.3525C16.5 13.44 15.72 13.8975 14.7675 13.3725L12 11.8275V6.74249C12 5.45999 10.95 4.41 9.6675 4.41H6V3.83249C6 2.54999 7.04999 1.5 8.3325 1.5H14.1675C15.45 1.5 16.5 2.54999 16.5 3.83249Z" stroke="#0B1E29" stroke-linecap="round" stroke-linejoin="round"/>
</svg>
