<svg width="14" height="14" viewBox="0 0 14 14" fill="none" xmlns="http://www.w3.org/2000/svg">
<path d="M4.66602 1.16699V2.91699" stroke="#F5F5F5" stroke-miterlimit="10" stroke-linecap="round" stroke-linejoin="round"/>
<path d="M9.33398 1.16699V2.91699" stroke="#F5F5F5" stroke-miterlimit="10" stroke-linecap="round" stroke-linejoin="round"/>
<path d="M2.04102 5.30273H11.9577" stroke="#F5F5F5" stroke-miterlimit="10" stroke-linecap="round" stroke-linejoin="round"/>
<path d="M12.8327 11.0833C12.8327 11.5208 12.7102 11.935 12.4943 12.285C12.0918 12.9617 11.351 13.4167 10.4993 13.4167C9.91018 13.4167 9.37352 13.2008 8.96518 12.8333C8.78435 12.6817 8.62685 12.495 8.50435 12.285C8.28852 11.935 8.16602 11.5208 8.16602 11.0833C8.16602 9.79417 9.21018 8.75 10.4993 8.75C11.1993 8.75 11.8235 9.05917 12.2493 9.54333C12.611 9.9575 12.8327 10.4942 12.8327 11.0833Z" stroke="#F5F5F5" stroke-miterlimit="10" stroke-linecap="round" stroke-linejoin="round"/>
<path d="M10.4388 10.3545V11.2295L11.168 11.667" stroke="#F5F5F5" stroke-miterlimit="10" stroke-linecap="round" stroke-linejoin="round"/>
<path d="M12.25 4.95866V9.54366C11.8242 9.05949 11.2 8.75033 10.5 8.75033C9.21083 8.75033 8.16667 9.79449 8.16667 11.0837C8.16667 11.5212 8.28917 11.9353 8.505 12.2853C8.6275 12.4953 8.785 12.682 8.96583 12.8337H4.66667C2.625 12.8337 1.75 11.667 1.75 9.91699V4.95866C1.75 3.20866 2.625 2.04199 4.66667 2.04199H9.33333C11.375 2.04199 12.25 3.20866 12.25 4.95866Z" stroke="#F5F5F5" stroke-miterlimit="10" stroke-linecap="round" stroke-linejoin="round"/>
<path d="M6.99609 7.63379H7.00209" stroke="#F5F5F5" stroke-width="1.5" stroke-linecap="round" stroke-linejoin="round"/>
<path d="M4.83789 7.63379H4.84388" stroke="#F5F5F5" stroke-width="1.5" stroke-linecap="round" stroke-linejoin="round"/>
<path d="M4.83789 9.74121H4.84388" stroke="#F5F5F5" stroke-width="1.5" stroke-linecap="round" stroke-linejoin="round"/>
</svg>
