<svg width="16" height="17" viewBox="0 0 16 17" fill="none" xmlns="http://www.w3.org/2000/svg">
<g clip-path="url(#clip0_2688_964)">
<path d="M5.33301 1.83325V3.83325" stroke="#BEBAB9" stroke-miterlimit="10" stroke-linecap="round" stroke-linejoin="round"/>
<path d="M10.667 1.83325V3.83325" stroke="#BEBAB9" stroke-miterlimit="10" stroke-linecap="round" stroke-linejoin="round"/>
<path d="M2.33301 6.56006H13.6663" stroke="#BEBAB9" stroke-miterlimit="10" stroke-linecap="round" stroke-linejoin="round"/>
<path d="M14.6663 13.1667C14.6663 13.6667 14.5263 14.14 14.2797 14.54C13.8197 15.3133 12.973 15.8333 11.9997 15.8333C11.3263 15.8333 10.713 15.5867 10.2463 15.1667C10.0397 14.9933 9.85967 14.78 9.71967 14.54C9.47301 14.14 9.33301 13.6667 9.33301 13.1667C9.33301 11.6933 10.5263 10.5 11.9997 10.5C12.7997 10.5 13.513 10.8533 13.9997 11.4067C14.413 11.88 14.6663 12.4933 14.6663 13.1667Z" stroke="#BEBAB9" stroke-miterlimit="10" stroke-linecap="round" stroke-linejoin="round"/>
<path d="M11.9313 12.3333V13.3333L12.7646 13.8333" stroke="#BEBAB9" stroke-miterlimit="10" stroke-linecap="round" stroke-linejoin="round"/>
<path d="M14 6.16659V11.4066C13.5133 10.8533 12.8 10.4999 12 10.4999C10.5267 10.4999 9.33333 11.6933 9.33333 13.1666C9.33333 13.6666 9.47333 14.1399 9.72 14.5399C9.86 14.7799 10.04 14.9933 10.2467 15.1666H5.33333C3 15.1666 2 13.8333 2 11.8333V6.16659C2 4.16659 3 2.83325 5.33333 2.83325H10.6667C13 2.83325 14 4.16659 14 6.16659Z" stroke="#BEBAB9" stroke-miterlimit="10" stroke-linecap="round" stroke-linejoin="round"/>
<path d="M7.99707 9.22461H8.00307" stroke="#BEBAB9" stroke-width="1.5" stroke-linecap="round" stroke-linejoin="round"/>
<path d="M5.5293 9.22461H5.53528" stroke="#BEBAB9" stroke-width="1.5" stroke-linecap="round" stroke-linejoin="round"/>
<path d="M5.5293 11.6333H5.53528" stroke="#BEBAB9" stroke-width="1.5" stroke-linecap="round" stroke-linejoin="round"/>
</g>
<defs>Å
<clipPath id="clip0_2688_964">
<rect width="16" height="16" fill="white" transform="translate(0 0.5)"/>
</clipPath>
</defs>
</svg>
