<svg width="26" height="26" viewBox="0 0 26 26" fill="none" xmlns="http://www.w3.org/2000/svg">
<circle cx="13" cy="13" r="12" fill="#F5F5F5" stroke="white" stroke-width="2"/>
<g clip-path="url(#clip0_2688_1333)">
<path d="M9.53812 18.7775H15.5932C17.1879 18.7775 17.8234 17.801 17.8985 16.6108L18.199 11.8384C18.2799 10.5904 17.2861 9.53303 16.0323 9.53303C15.6799 9.53303 15.3563 9.33081 15.1945 9.01881L14.7785 8.18103C14.5128 7.65526 13.8194 7.22192 13.2301 7.22192H11.907C11.3119 7.22192 10.6186 7.65526 10.3528 8.18103L9.93679 9.01881C9.77501 9.33081 9.45146 9.53303 9.09901 9.53303C7.84523 9.53303 6.85146 10.5904 6.93235 11.8384L7.23279 16.6108C7.30212 17.801 7.94346 18.7775 9.53812 18.7775Z" stroke="#0B1E29" stroke-width="0.933333" stroke-linecap="round" stroke-linejoin="round"/>
<path d="M11.6997 10.6885H13.433" stroke="#0B1E29" stroke-width="0.933333" stroke-linecap="round" stroke-linejoin="round"/>
<path d="M12.5667 16.467C13.601 16.467 14.4445 15.6234 14.4445 14.5892C14.4445 13.555 13.601 12.7114 12.5667 12.7114C11.5325 12.7114 10.689 13.555 10.689 14.5892C10.689 15.6234 11.5325 16.467 12.5667 16.467Z" stroke="#0B1E29" stroke-width="0.933333" stroke-linecap="round" stroke-linejoin="round"/>
</g>
<defs>
<clipPath id="clip0_2688_1333">
<rect width="13.8667" height="13.8667" fill="white" transform="translate(5.63281 6.06665)"/>
</clipPath>
</defs>
</svg>
