<svg width="24" height="24" viewBox="0 0 24 24" fill="none" xmlns="http://www.w3.org/2000/svg">
<path fill-rule="evenodd" clip-rule="evenodd" d="M12.7575 4.87313L6.75746 6.37313C6.3123 6.48442 6 6.88441 6 7.34328V20.0009H14V5.84328C14 5.1927 13.3886 4.71535 12.7575 4.87313ZM16 10.0009V20.0009H18V11.0009C18 10.4487 17.5523 10.0009 17 10.0009H16ZM21 22.0009C21.5523 22.0009 22 21.5532 22 21.0009C22 20.4487 21.5523 20.0009 21 20.0009H20V11.0009C20 9.34409 18.6569 8.00095 17 8.00095H16V5.84328C16 3.89156 14.1658 2.45949 12.2724 2.93285L6.27239 4.43285C4.93689 4.76672 4 5.96667 4 7.34328V20.0009H3C2.44772 20.0009 2 20.4487 2 21.0009C2 21.5532 2.44772 22.0009 3 22.0009H21Z" fill="#BEBAB9"/>
<path fill-rule="evenodd" clip-rule="evenodd" d="M8 17.0009C8 16.4487 8.44772 16.0009 9 16.0009H11C11.5523 16.0009 12 16.4487 12 17.0009C12 17.5532 11.5523 18.0009 11 18.0009H9C8.44772 18.0009 8 17.5532 8 17.0009Z" fill="#BEBAB9"/>
<path fill-rule="evenodd" clip-rule="evenodd" d="M8 13.0009C8 12.4487 8.44772 12.0009 9 12.0009H11C11.5523 12.0009 12 12.4487 12 13.0009C12 13.5532 11.5523 14.0009 11 14.0009H9C8.44772 14.0009 8 13.5532 8 13.0009Z" fill="#BEBAB9"/>
<path fill-rule="evenodd" clip-rule="evenodd" d="M8 9.00095C8 8.44866 8.44772 8.00095 9 8.00095H11C11.5523 8.00095 12 8.44866 12 9.00095C12 9.55323 11.5523 10.0009 11 10.0009H9C8.44772 10.0009 8 9.55323 8 9.00095Z" fill="#BEBAB9"/>
</svg>
