<svg width="20" height="20" viewBox="0 0 20 20" fill="none" xmlns="http://www.w3.org/2000/svg">
<path d="M12.9832 9.9999C12.9832 11.6499 11.6499 12.9832 9.9999 12.9832C8.3499 12.9832 7.0166 11.6499 7.0166 9.9999C7.0166 8.3499 8.3499 7.0166 9.9999 7.0166C11.6499 7.0166 12.9832 8.3499 12.9832 9.9999Z" stroke="#BEBAB9" stroke-linecap="round" stroke-linejoin="round"/>
<path d="M9.9999 16.8918C12.9416 16.8918 15.6832 15.1585 17.5916 12.1585C18.3416 10.9835 18.3416 9.00846 17.5916 7.83343C15.6832 4.83343 12.9416 3.1001 9.9999 3.1001C7.0582 3.1001 4.31654 4.83343 2.4082 7.83343C1.6582 9.00846 1.6582 10.9835 2.4082 12.1585C4.31654 15.1585 7.0582 16.8918 9.9999 16.8918Z" stroke="#BEBAB9" stroke-linecap="round" stroke-linejoin="round"/>
</svg>
