<svg width="15" height="19" viewBox="0 0 15 19" fill="none" xmlns="http://www.w3.org/2000/svg">
<path d="M9.25647 1.794C9.67538 1.58623 10.1453 1.50371 10.61 1.55631C11.0746 1.60891 11.5142 1.79441 11.8761 2.09057C12.238 2.38673 12.5067 2.78098 12.6502 3.22605C12.7936 3.67111 12.8056 4.1481 12.6848 4.59983L10.7081 11.979C10.6307 12.2929 10.4914 12.5882 10.2984 12.8475C10.1054 13.1069 9.86266 13.3252 9.58429 13.4896C9.30592 13.654 8.99755 13.7613 8.67724 13.805C8.35692 13.8488 8.03108 13.8283 7.71881 13.7446C7.40653 13.6609 7.11409 13.5157 6.8586 13.3176C6.60311 13.1195 6.3897 12.8724 6.23086 12.5909C6.07203 12.3093 5.97096 11.9988 5.93358 11.6777C5.89619 11.3566 5.92324 11.0312 6.01313 10.7207L6.80397 7.769C6.8252 7.68966 6.83059 7.60691 6.81984 7.52549C6.8091 7.44406 6.78242 7.36555 6.74133 7.29444C6.70024 7.22332 6.64554 7.161 6.58037 7.11102C6.51519 7.06105 6.44081 7.0244 6.36147 7.00317C6.28213 6.98194 6.19938 6.97654 6.11796 6.98729C6.03653 6.99804 5.95802 7.02472 5.8869 7.06581C5.81579 7.1069 5.75347 7.16159 5.70349 7.22677C5.65351 7.29194 5.61686 7.36633 5.59563 7.44567L4.80563 10.3973C4.672 10.8669 4.6331 11.3583 4.6912 11.843C4.7493 12.3277 4.90323 12.796 5.14404 13.2206C5.38485 13.6453 5.70773 14.0178 6.09387 14.3165C6.48002 14.6151 6.92172 14.834 7.39326 14.9603C7.8648 15.0867 8.35676 15.118 8.84051 15.0524C9.32425 14.9868 9.79012 14.8256 10.211 14.5782C10.6318 14.3309 10.9993 14.0023 11.292 13.6115C11.5846 13.2208 11.7966 12.7758 11.9156 12.3023L13.8931 4.924C14.1123 4.10767 14.0439 3.24078 13.6994 2.46895C13.3548 1.69712 12.7551 1.06739 12.001 0.685561C11.2469 0.303729 10.3844 0.19306 9.55836 0.372146C8.7323 0.551232 7.99305 1.00916 7.4648 1.669C7.41342 1.73302 7.37515 1.80653 7.35218 1.88534C7.32921 1.96415 7.32199 2.04671 7.33093 2.12831C7.33987 2.20991 7.36479 2.28895 7.40427 2.36092C7.44376 2.43288 7.49703 2.49637 7.56105 2.54775C7.69034 2.65151 7.85556 2.69967 8.02036 2.68162C8.10196 2.67268 8.181 2.64776 8.25297 2.60827C8.32493 2.56879 8.38842 2.51552 8.4398 2.4515C8.6623 2.174 8.9423 1.95067 9.25647 1.794Z" fill="#BEBAB9"/>
<path d="M3.85265 6.97834C3.9332 6.66773 4.07444 6.37615 4.26823 6.1204C4.46202 5.86465 4.70453 5.64981 4.98177 5.48825C5.25901 5.32669 5.56549 5.22162 5.88354 5.1791C6.20159 5.13658 6.52491 5.15745 6.83485 5.2405C7.14479 5.32356 7.43523 5.46715 7.6894 5.66301C7.94357 5.85887 8.15644 6.10311 8.31575 6.38165C8.47506 6.66019 8.57764 6.96751 8.61759 7.28589C8.65753 7.60427 8.63405 7.92741 8.54849 8.23667L7.75682 11.1883C7.73559 11.2677 7.73019 11.3504 7.74094 11.4318C7.75169 11.5133 7.77837 11.5918 7.81946 11.6629C7.86055 11.734 7.91525 11.7963 7.98042 11.8463C8.0456 11.8963 8.11998 11.9329 8.19932 11.9542C8.27866 11.9754 8.36141 11.9808 8.44283 11.9701C8.52426 11.9593 8.60277 11.9326 8.67388 11.8915C8.745 11.8504 8.80732 11.7957 8.8573 11.7306C8.90727 11.6654 8.94392 11.591 8.96515 11.5117L9.75515 8.56001C9.88879 8.09048 9.92768 7.59906 9.86959 7.11436C9.81149 6.62965 9.65755 6.16135 9.41674 5.7367C9.17593 5.31206 8.85306 4.93955 8.46691 4.64088C8.08077 4.34221 7.63907 4.12333 7.16753 3.99699C6.69599 3.87065 6.20402 3.83937 5.72028 3.90497C5.23653 3.97057 4.77067 4.13174 4.34981 4.3791C3.92894 4.62647 3.56149 4.95507 3.26884 5.3458C2.97618 5.73653 2.76417 6.18156 2.64515 6.65501L0.668487 14.0333C0.449721 14.8495 0.518393 15.716 0.862973 16.4875C1.20755 17.259 1.80706 17.8884 2.56085 18.2701C3.31463 18.6519 4.1768 18.7626 5.00261 18.5839C5.82841 18.4051 6.56757 17.9476 7.09599 17.2883C7.19975 17.159 7.24791 16.9938 7.22986 16.829C7.21181 16.6642 7.12903 16.5134 6.99974 16.4096C6.87044 16.3058 6.70522 16.2577 6.54043 16.2757C6.37563 16.2938 6.22475 16.3765 6.12099 16.5058C5.82519 16.8736 5.429 17.1477 4.9805 17.2947C4.532 17.4418 4.05046 17.4555 3.59432 17.3342C3.28591 17.2516 2.99679 17.1091 2.74347 16.9147C2.49016 16.7204 2.27761 16.478 2.11796 16.2015C1.95832 15.925 1.8547 15.6198 1.81304 15.3033C1.77138 14.9867 1.79249 14.6651 1.87515 14.3567L3.85265 6.97834Z" fill="#BEBAB9"/>
</svg>
