<svg width="20" height="20" viewBox="0 0 20 20" fill="none" xmlns="http://www.w3.org/2000/svg">
<path d="M18.0665 14.133L15.4582 8.04137C14.5749 5.9747 12.9499 5.89137 11.8582 7.85803L10.2832 10.6997C9.48321 12.1414 7.99156 12.2664 6.95823 10.9747L6.7749 10.7414C5.6999 9.39138 4.18323 9.55805 3.40823 11.0997L1.9749 13.9747C0.966564 15.9747 2.4249 18.3331 4.65823 18.3331H15.2915C17.4582 18.3331 18.9165 16.1247 18.0665 14.133Z" stroke="#BEBAB9" stroke-linecap="round" stroke-linejoin="round"/>
<path d="M5.80835 6.66699C7.18906 6.66699 8.30835 5.5477 8.30835 4.16699C8.30835 2.78628 7.18906 1.66699 5.80835 1.66699C4.42764 1.66699 3.30835 2.78628 3.30835 4.16699C3.30835 5.5477 4.42764 6.66699 5.80835 6.66699Z" stroke="#BEBAB9" stroke-linecap="round" stroke-linejoin="round"/>
</svg>
