<svg width="20" height="20" viewBox="0 0 20 20" fill="none" xmlns="http://www.w3.org/2000/svg">
<path d="M1.84544 19.6497L1.84545 19.6497C2.23926 19.8504 2.67295 19.9385 3.19231 19.9808L3.1924 19.9808C3.70043 20.0226 4.33181 20.0227 5.13336 20.0227H14.867C15.6682 20.0227 16.2997 20.0226 16.808 19.981L16.808 19.981C17.3273 19.9388 17.7608 19.8505 18.1547 19.6499C18.7984 19.322 19.3218 18.7987 19.6498 18.155C19.8503 17.7609 19.9384 17.3275 19.9809 16.8081C20.0222 16.3 20.0223 15.6686 20.0223 14.8671V5.13321C20.0223 4.33199 20.0222 3.70057 19.9809 3.19221C19.9384 2.67283 19.8503 2.23939 19.6498 1.84555C19.3218 1.20177 18.7984 0.678365 18.1547 0.350378C17.7608 0.149854 17.3274 0.0618124 16.808 0.0192624C16.3024 -0.022072 15.6746 -0.0220712 14.8785 -0.0220703L14.867 -0.0220703H5.13309L5.12155 -0.0220703C4.32572 -0.0220712 3.69797 -0.022072 3.19236 0.0192624L1.84544 19.6497ZM1.84544 19.6497C1.20175 19.3216 0.678441 18.7982 0.350525 18.1545L0.350497 18.1544M1.84544 19.6497L0.350497 18.1544M0.0191406 3.19221C0.0616908 2.67282 0.149731 2.2394 0.350509 1.84557L0.350522 1.84555C0.678509 1.20176 1.20191 0.678353 1.8457 0.350366L1.8457 0.350365C2.23925 0.149861 2.67295 0.0618159 3.19234 0.0192638L0.0191406 3.19221ZM0.0191406 3.19221C-0.0221174 3.70029 -0.0221923 4.33171 -0.0221923 5.13321M0.0191406 3.19221L-0.0221923 5.13321M0.350497 18.1544C0.149739 17.7609 0.0616966 17.3272 0.0194225 16.8079L0.0194152 16.8078M0.350497 18.1544L0.0194152 16.8078M0.0194152 16.8078C-0.022194 16.3022 -0.0221933 15.6744 -0.0221924 14.8785M0.0194152 16.8078L-0.0221924 14.8785M18.7822 17.7125L18.7822 17.7125C18.5476 18.173 18.1732 18.5474 17.7127 18.782C17.4789 18.9013 17.1876 18.9729 16.7288 19.0104C16.2647 19.0485 15.6732 19.0485 14.8463 19.0485H14.8411H5.15892C4.32925 19.0485 3.73634 19.0483 3.27156 19.0101C2.81238 18.9726 2.52136 18.901 2.28741 18.7818L2.33281 18.6927L2.28739 18.7817C1.827 18.5471 1.4527 18.1727 1.21815 17.7122C1.09891 17.4785 1.02725 17.1872 0.989533 16.7283L0.989528 16.7283C0.951618 16.2635 0.951419 15.6704 0.951419 14.841V5.15876C0.951419 4.32908 0.951618 3.73593 0.989528 3.27119L0.989532 3.27113C1.02726 2.81197 1.09893 2.52092 1.21818 2.2872C1.45273 1.82677 1.82702 1.45239 2.28739 1.21773L2.28741 1.21772C2.52138 1.09849 2.81241 1.02682 3.27162 0.989372M18.7822 17.7125L3.27162 0.989372M18.7822 17.7125C18.9011 17.4788 18.9728 17.1878 19.0105 16.7286L19.0105 16.7286M18.7822 17.7125L19.0105 16.7286M3.27162 0.989372C3.73636 0.951463 4.32919 0.950985 5.15892 0.950985M3.27162 0.989372L5.15892 0.950985M19.0105 16.7286C19.0484 16.2638 19.0489 15.6707 19.0489 14.8413V5.15876C19.0489 4.32903 19.0484 3.7362 19.0105 3.27119C18.9731 2.81219 18.9011 2.52093 18.7822 2.28729L18.7822 2.28725M19.0105 16.7286L18.7822 2.28725M18.7822 2.28725C18.5476 1.82676 18.1732 1.45237 17.7127 1.21774C17.4789 1.09847 17.1876 1.02709 16.7288 0.989377L16.7287 0.989371M18.7822 2.28725L16.7287 0.989371M16.7287 0.989371C16.2637 0.951463 15.6709 0.950985 14.8411 0.950985M16.7287 0.989371L14.8411 0.950985M-0.0221924 14.8785L-0.0221923 14.8671M-0.0221924 14.8785L-0.0221923 14.8671M-0.0221923 14.8671V5.13321M-0.0221923 14.8671V5.13321M14.8411 0.950985H5.15892M14.8411 0.950985H5.15892" fill="#BEBAB9" stroke="white" stroke-width="0.2"/>
<path d="M6.65924 13.0199C6.04341 13.0199 5.52035 12.9032 5.09091 12.6704C4.66647 12.4376 4.34313 12.1115 4.12063 11.6924C3.89813 11.2729 3.78674 10.7813 3.78674 10.2174C3.78674 9.78264 3.85147 9.39181 3.98091 9.04514C4.11535 8.6932 4.30702 8.39542 4.55535 8.15237C4.80897 7.90375 5.11424 7.71237 5.47147 7.57764C5.83369 7.4432 6.24258 7.37598 6.69785 7.37598C6.9773 7.37598 7.25702 7.40709 7.53646 7.46903C7.81591 7.53125 8.08508 7.63459 8.34369 7.77959C8.45258 7.84181 8.5248 7.92181 8.56119 8.02014C8.60258 8.11348 8.61285 8.21459 8.5923 8.32292C8.57717 8.42573 8.53423 8.52246 8.46813 8.60264C8.40591 8.68042 8.32313 8.73181 8.21952 8.75792C8.12119 8.77848 8.0073 8.75792 7.87785 8.6957C7.70739 8.60262 7.5244 8.53461 7.33452 8.49375C7.12841 8.44556 6.91729 8.42216 6.70563 8.42403C6.33841 8.42403 6.03035 8.49375 5.78202 8.63348C5.53341 8.7682 5.3473 8.96987 5.22285 9.23903C5.10397 9.50292 5.04452 9.82903 5.04452 10.2174C5.04452 10.8021 5.18424 11.2446 5.46369 11.5449C5.74841 11.8449 6.16758 11.9949 6.72119 11.9949C6.90758 11.9949 7.09896 11.9771 7.29563 11.9407C7.4923 11.9046 7.68646 11.8526 7.87785 11.7854L7.65285 12.2743V10.784H6.95424C6.79869 10.784 6.6798 10.7451 6.59702 10.6674C6.51424 10.5899 6.47285 10.484 6.47285 10.3493C6.47285 10.2096 6.51424 10.1035 6.59702 10.031C6.6798 9.9532 6.79897 9.91431 6.95424 9.91431H8.17313C8.32813 9.91431 8.4448 9.95598 8.5223 10.0388C8.60508 10.1215 8.64647 10.2407 8.64647 10.396V12.1968C8.64647 12.3315 8.62063 12.4454 8.56869 12.5385C8.5173 12.6315 8.42924 12.699 8.3048 12.7404C8.07202 12.8232 7.81063 12.8904 7.52091 12.9421C7.23119 12.994 6.94369 13.0199 6.65924 13.0199ZM10.317 13.0043C10.1204 13.0043 9.97035 12.9499 9.86702 12.8413C9.76341 12.7326 9.71147 12.5801 9.71147 12.3832V8.01264C9.71147 7.81598 9.76341 7.6632 9.86702 7.55431C9.97035 7.44598 10.1204 7.39153 10.317 7.39153C10.5087 7.39153 10.6559 7.4457 10.7595 7.55459C10.8631 7.66292 10.9151 7.8157 10.9151 8.01264V12.3832C10.9151 12.5799 10.8631 12.7326 10.7595 12.8413C10.6612 12.9499 10.5137 13.0043 10.317 13.0043ZM12.6295 13.0043C12.4329 13.0043 12.2804 12.9499 12.1715 12.8413C12.0681 12.7326 12.0162 12.5746 12.0162 12.3676V8.09014C12.0162 7.8882 12.0706 7.7332 12.1792 7.62431C12.2879 7.5157 12.4431 7.46125 12.6451 7.46125H15.3001C15.4554 7.46125 15.5717 7.50292 15.6495 7.58542C15.7323 7.6632 15.7737 7.77709 15.7737 7.92709C15.7737 8.08264 15.732 8.20153 15.6495 8.28431C15.5717 8.36209 15.4554 8.4007 15.3001 8.4007H13.2195V9.73598H15.1292C15.2848 9.73598 15.4037 9.77737 15.4865 9.86014C15.5692 9.93792 15.6106 10.0518 15.6106 10.2018C15.6106 10.3518 15.569 10.4685 15.4865 10.551C15.404 10.6335 15.2845 10.6754 15.1292 10.6754H13.2195V12.3676C13.2195 12.7921 13.0229 13.0043 12.6295 13.0043Z" fill="#BEBAB9"/>
</svg>
