<svg width="25" height="24" viewBox="0 0 25 24" fill="none" xmlns="http://www.w3.org/2000/svg">
<path fill-rule="evenodd" clip-rule="evenodd" d="M5.5 21.9991C3.84315 21.9991 2.5 20.6559 2.5 18.9991V11.3352C2.5 10.4847 2.86096 9.6742 3.49311 9.10527L10.4931 2.80527C11.634 1.77845 13.366 1.77845 14.5069 2.80527L21.5069 9.10527C22.139 9.6742 22.5 10.4847 22.5 11.3352V18.9991C22.5 20.6559 21.1569 21.9991 19.5 21.9991H5.5ZM20.5 11.3352V18.9991C20.5 19.5514 20.0523 19.9991 19.5 19.9991H16.5V14.9991C16.5 13.3422 15.1569 11.9991 13.5 11.9991H11.5C9.84315 11.9991 8.5 13.3422 8.5 14.9991V19.9991H5.5C4.94772 19.9991 4.5 19.5514 4.5 18.9991V11.3352C4.5 11.0517 4.62032 10.7815 4.83104 10.5919L11.831 4.29186C12.2113 3.94959 12.7887 3.94959 13.169 4.29186L20.169 10.5919C20.3797 10.7815 20.5 11.0517 20.5 11.3352ZM10.5 19.9991V14.9991C10.5 14.4468 10.9477 13.9991 11.5 13.9991H13.5C14.0523 13.9991 14.5 14.4468 14.5 14.9991V19.9991H10.5Z" fill="#BEBAB9"/>
</svg>
