<svg width="25" height="24" viewBox="0 0 25 24" fill="none" xmlns="http://www.w3.org/2000/svg">
<path fill-rule="evenodd" clip-rule="evenodd" d="M3.49311 9.10625C2.86096 9.67518 2.5 10.4857 2.5 11.3361V19C2.5 20.6569 3.84315 22 5.5 22H19.5C21.1569 22 22.5 20.6569 22.5 19V11.3361C22.5 10.4857 22.139 9.67518 21.5069 9.10625L14.5069 2.80625C13.366 1.77943 11.634 1.77943 10.4931 2.80625L3.49311 9.10625ZM11.5 13C10.3954 13 9.5 13.8955 9.5 15V19C9.5 19.5523 9.94772 20 10.5 20H14.5C15.0523 20 15.5 19.5523 15.5 19V15C15.5 13.8955 14.6046 13 13.5 13H11.5Z" fill="#F15C22"/>
</svg>
