<svg width="20" height="20" viewBox="0 0 20 20" fill="none" xmlns="http://www.w3.org/2000/svg">
<path d="M10.1337 9.05817C10.0503 9.04984 9.95033 9.04984 9.85866 9.05817C7.87529 8.9915 6.30029 7.3665 6.30029 5.3665C6.30029 3.32484 7.95029 1.6665 10.0003 1.6665C12.042 1.6665 13.7003 3.32484 13.7003 5.3665C13.692 7.3665 12.117 8.9915 10.1337 9.05817Z" stroke="#BEBAB9" stroke-linecap="round" stroke-linejoin="round"/>
<path d="M5.9666 12.1335C3.94993 13.4835 3.94993 15.6835 5.9666 17.0252C8.25827 18.5585 12.0166 18.5585 14.3083 17.0252C16.325 15.6752 16.325 13.4752 14.3083 12.1335C12.025 10.6085 8.2666 10.6085 5.9666 12.1335Z" stroke="#BEBAB9" stroke-linecap="round" stroke-linejoin="round"/>
</svg>
