<svg width="18" height="18" viewBox="0 0 18 18" fill="none" xmlns="http://www.w3.org/2000/svg">
<path d="M9 5.25C9.29667 5.25 9.58668 5.16203 9.83336 4.99721C10.08 4.83238 10.2723 4.59812 10.3858 4.32403C10.4994 4.04994 10.5291 3.74834 10.4712 3.45737C10.4133 3.16639 10.2704 2.89912 10.0607 2.68934C9.85088 2.47956 9.58361 2.3367 9.29264 2.27882C9.00166 2.22094 8.70007 2.25065 8.42598 2.36418C8.15189 2.47771 7.91762 2.66997 7.7528 2.91665C7.58797 3.16332 7.5 3.45333 7.5 3.75C7.5 4.14783 7.65804 4.52936 7.93934 4.81066C8.22065 5.09197 8.60218 5.25 9 5.25ZM9 12.75C8.70333 12.75 8.41332 12.838 8.16665 13.0028C7.91997 13.1676 7.72771 13.4019 7.61418 13.676C7.50065 13.9501 7.47094 14.2517 7.52882 14.5426C7.5867 14.8336 7.72956 15.1009 7.93934 15.3107C8.14912 15.5204 8.41639 15.6633 8.70737 15.7212C8.99834 15.7791 9.29994 15.7494 9.57403 15.6358C9.84811 15.5223 10.0824 15.33 10.2472 15.0834C10.412 14.8367 10.5 14.5467 10.5 14.25C10.5 13.8522 10.342 13.4706 10.0607 13.1893C9.77936 12.908 9.39783 12.75 9 12.75ZM9 7.5C8.70333 7.5 8.41332 7.58797 8.16665 7.7528C7.91997 7.91762 7.72771 8.15189 7.61418 8.42598C7.50065 8.70007 7.47094 9.00166 7.52882 9.29264C7.5867 9.58361 7.72956 9.85088 7.93934 10.0607C8.14912 10.2704 8.41639 10.4133 8.70737 10.4712C8.99834 10.5291 9.29994 10.4994 9.57403 10.3858C9.84811 10.2723 10.0824 10.08 10.2472 9.83336C10.412 9.58668 10.5 9.29667 10.5 9C10.5 8.60218 10.342 8.22065 10.0607 7.93934C9.77936 7.65804 9.39783 7.5 9 7.5Z" fill="white"/>
</svg>
