<svg width="25" height="24" viewBox="0 0 25 24" fill="none" xmlns="http://www.w3.org/2000/svg">
<path d="M16.5 6.0007C16.8948 6.0007 17.2809 5.88383 17.6094 5.6648L20.5 3.73774V13.0007C20.5 13.553 20.0523 14.0007 19.5 14.0007H18.5V16.0007H19.5C21.1569 16.0007 22.5 14.6576 22.5 13.0007V3.73774C22.5 2.14035 20.7197 1.18756 19.3906 2.07364L16.5 4.0007H9.5C7.84315 4.0007 6.5 5.34385 6.5 7.0007V8.0007H8.5V7.0007C8.5 6.44842 8.94772 6.0007 9.5 6.0007H16.5Z" fill="#BEBAB9"/>
<path fill-rule="evenodd" clip-rule="evenodd" d="M6.25061 18.439C6.60524 18.1553 7.04586 18.0007 7.5 18.0007H15.5C16.0523 18.0007 16.5 17.553 16.5 17.0007V11.0007C16.5 10.4484 16.0523 10.0007 15.5 10.0007H5.5C4.94772 10.0007 4.5 10.4484 4.5 11.0007V19.8395L6.25061 18.439ZM7.5 20.0007H15.5C17.1569 20.0007 18.5 18.6576 18.5 17.0007V11.0007C18.5 9.34385 17.1569 8.0007 15.5 8.0007H5.5C3.84315 8.0007 2.5 9.34385 2.5 11.0007V19.8395C2.5 21.5165 4.43986 22.4488 5.74939 21.4012L7.5 20.0007Z" fill="#BEBAB9"/>
<path fill-rule="evenodd" clip-rule="evenodd" d="M6.5 14.0007C6.5 13.4484 6.94772 13.0007 7.5 13.0007H13.5C14.0523 13.0007 14.5 13.4484 14.5 14.0007C14.5 14.553 14.0523 15.0007 13.5 15.0007H7.5C6.94772 15.0007 6.5 14.553 6.5 14.0007Z" fill="#BEBAB9"/>
</svg>
