<svg width="18" height="18" viewBox="0 0 18 18" fill="none" xmlns="http://www.w3.org/2000/svg">
<path d="M13.8167 12.2598L14.0799 14.3928C14.1474 14.953 13.5467 15.3445 13.0675 15.0542L10.2393 13.3735C9.92884 13.3735 9.6251 13.3533 9.32811 13.3128C9.82759 12.7256 10.1246 11.9831 10.1246 11.1799C10.1246 9.26296 8.46415 7.71053 6.41221 7.71053C5.62924 7.71053 4.90702 7.93327 4.3063 8.32475C4.28605 8.15601 4.2793 7.98727 4.2793 7.81177C4.2793 4.74064 6.94544 2.25 10.2393 2.25C13.5332 2.25 16.1993 4.74064 16.1993 7.81177C16.1993 9.6342 15.2611 11.2474 13.8167 12.2598Z" stroke="#BEBAB9" stroke-linecap="round" stroke-linejoin="round"/>
<path d="M10.1249 11.1802C10.1249 11.9834 9.8279 12.726 9.32842 13.3132C8.6602 14.1232 7.6005 14.6428 6.41254 14.6428L4.65087 15.689C4.35388 15.8713 3.97589 15.6215 4.01639 15.2773L4.18513 13.9477C3.28067 13.32 2.7002 12.3142 2.7002 11.1802C2.7002 9.99228 3.33467 8.94614 4.30663 8.32516C4.90736 7.93368 5.62958 7.71094 6.41254 7.71094C8.46446 7.71094 10.1249 9.26331 10.1249 11.1802Z" stroke="#BEBAB9" stroke-linecap="round" stroke-linejoin="round"/>
</svg>
