<svg width="25" height="24" viewBox="0 0 25 24" fill="none" xmlns="http://www.w3.org/2000/svg">
<path fill-rule="evenodd" clip-rule="evenodd" d="M6.5 6.50053V8.00053H5C3.61929 8.00053 2.5 9.11982 2.5 10.5005V20.8796C2.5 22.1374 3.9549 22.8366 4.93704 22.0509L7.36304 20.1101C7.4517 20.0392 7.56185 20.0005 7.67539 20.0005H16C17.3807 20.0005 18.5 18.8812 18.5 17.5005V16.0005H20C21.3807 16.0005 22.5 14.8812 22.5 13.5005V2.8033C22.5 1.60526 21.1648 0.890673 20.168 1.55523L16.626 3.91655C16.5438 3.97131 16.4473 4.00053 16.3486 4.00053H9C7.61929 4.00053 6.5 5.11982 6.5 6.50053ZM16 8.00053H8.5V6.50053C8.5 6.22439 8.72386 6.00053 9 6.00053H16.3486C16.8422 6.00053 17.3247 5.85443 17.7354 5.58065L20.5 3.73756V13.5005C20.5 13.7767 20.2761 14.0005 20 14.0005H18.5V10.5005C18.5 9.11982 17.3807 8.00053 16 8.00053ZM7.5 13.0005C6.94772 13.0005 6.5 13.4482 6.5 14.0005C6.5 14.5528 6.94772 15.0005 7.5 15.0005H13.5C14.0523 15.0005 14.5 14.5528 14.5 14.0005C14.5 13.4482 14.0523 13.0005 13.5 13.0005H7.5Z" fill="#F15C22"/>
</svg>
