<svg width="18" height="18" viewBox="0 0 18 18" fill="none" xmlns="http://www.w3.org/2000/svg">
<path d="M13.8164 12.2598L14.0797 14.3928C14.1472 14.953 13.5464 15.3445 13.0672 15.0542L10.2391 13.3735C9.92859 13.3735 9.62485 13.3533 9.32787 13.3128C9.82735 12.7256 10.1243 11.9831 10.1243 11.1799C10.1243 9.26296 8.4639 7.71053 6.41197 7.71053C5.629 7.71053 4.90678 7.93327 4.30605 8.32475C4.2858 8.15601 4.27905 7.98727 4.27905 7.81177C4.27905 4.74064 6.94519 2.25 10.2391 2.25C13.5329 2.25 16.1991 4.74064 16.1991 7.81177C16.1991 9.6342 15.2609 11.2474 13.8164 12.2598Z" stroke="#0B1E29" stroke-linecap="round" stroke-linejoin="round"/>
<path d="M10.1246 11.18C10.1246 11.9832 9.82766 12.7257 9.32818 13.313C8.65996 14.1229 7.60025 14.6426 6.4123 14.6426L4.65062 15.6888C4.35363 15.871 3.97565 15.6213 4.01615 15.2771L4.18489 13.9474C3.28043 13.3197 2.69995 12.3139 2.69995 11.18C2.69995 9.99203 3.33443 8.94589 4.30639 8.32492C4.90711 7.93343 5.62933 7.71069 6.4123 7.71069C8.46422 7.71069 10.1246 9.26306 10.1246 11.18Z" stroke="#0B1E29" stroke-linecap="round" stroke-linejoin="round"/>
</svg>
