<svg width="110" height="135" viewBox="0 0 110 135" fill="none" xmlns="http://www.w3.org/2000/svg">
<path d="M84 40C84 34.4883 79.5117 30 74 30H36C30.4883 30 26 34.4883 26 40V71C26 76.5117 30.4883 81 36 81H42.6484L48.6992 87.3086C50.2773 88.957 52.4375 89.9102 54.7578 89.9883H55.0078H55.2266C57.5782 89.8985 59.7382 88.9492 61.3046 87.3086L67.3554 81H74.0039C79.5156 81 84.0039 76.5117 84.0039 71V40H84ZM80 71C80 74.3086 77.3086 77 74 77H68.2109C66.582 77 65 77.6719 63.8828 78.8516L58.4219 84.5508C57.5508 85.461 56.3711 85.961 54.9336 86.0117C53.6133 85.9609 52.4531 85.4609 51.5938 84.5508L46.1329 78.8516C45.004 77.6797 43.422 77 41.8048 77H36.0157C32.7071 77 30.0157 74.3086 30.0157 71V58H57.6177C57.356 58.6289 56.9771 59.1992 56.4888 59.6914L51.5982 64.582C50.817 65.3633 50.817 66.6328 51.5982 67.4101C51.9888 67.8007 52.4966 67.9999 53.0084 67.9999C53.5201 67.9999 54.0279 67.8007 54.4186 67.4101L59.317 62.5195C61.0553 60.7812 62.0162 58.4609 62.0162 56C62.0162 53.5391 61.0357 51.1992 59.317 49.4805L54.4264 44.5821C53.6451 43.8008 52.3756 43.8008 51.5983 44.5821C50.8171 45.3633 50.8171 46.6329 51.5983 47.4102L56.4889 52.3086C56.9694 52.7891 57.36 53.3672 57.6178 54H30.0158V40C30.0158 36.6914 32.7072 34 36.0158 34H74.0158C77.3244 34 80.0158 36.6914 80.0158 40V71H80Z" fill="#BEBAB9"/>
</svg>
