<svg width="17" height="17" viewBox="0 0 17 17" fill="none" xmlns="http://www.w3.org/2000/svg">
<g clip-path="url(#clip0_11536_1733)">
<path d="M9.13025 4.16504H3.61941C2.40816 4.16504 1.4165 5.1567 1.4165 6.36795V14.4146C1.4165 15.4417 2.15317 15.8809 3.05275 15.378L5.8365 13.8267C6.134 13.6638 6.61567 13.6638 6.90609 13.8267L9.68984 15.378C10.5894 15.8809 11.3261 15.4417 11.3261 14.4146V6.36795C11.3332 5.1567 10.3415 4.16504 9.13025 4.16504Z" fill="currentColor" stroke="#BEBAB9" stroke-linecap="round" stroke-linejoin="round"/>
<path d="M15.5832 3.6199V11.6666C15.5832 12.6937 14.8465 13.1257 13.9469 12.6299L11.3332 11.1707V6.36824C11.3332 5.15699 10.3415 4.16533 9.13025 4.16533H5.6665V3.6199C5.6665 2.40865 6.65816 1.41699 7.86942 1.41699H13.3803C14.5915 1.41699 15.5832 2.40865 15.5832 3.6199Z" fill="currentColor" stroke="#BEBAB9" stroke-linecap="round" stroke-linejoin="round"/>
</g>
<defs>
<clipPath id="clip0_11536_1733">
<rect width="17" height="17" fill="white"/>
</clipPath>
</defs>
</svg>
