<svg width="16" height="17" viewBox="0 0 16 17" fill="none" xmlns="http://www.w3.org/2000/svg">
<path d="M5.36934 5.06515L7.2018 3.22469V10.8986C7.2018 11.1108 7.2861 11.3144 7.43617 11.4644C7.58624 11.6145 7.78977 11.6988 8.002 11.6988C8.21422 11.6988 8.41776 11.6145 8.56782 11.4644C8.71789 11.3144 8.80219 11.1108 8.80219 10.8986V3.22469L10.6347 5.06515C10.709 5.14015 10.7975 5.19968 10.8951 5.24031C10.9926 5.28093 11.0972 5.30185 11.2028 5.30185C11.3084 5.30185 11.413 5.28093 11.5105 5.24031C11.608 5.19968 11.6965 5.14015 11.7709 5.06515C11.8459 4.99076 11.9055 4.90226 11.9461 4.80475C11.9867 4.70723 12.0076 4.60264 12.0076 4.49701C12.0076 4.39137 11.9867 4.28678 11.9461 4.18927C11.9055 4.09176 11.8459 4.00325 11.7709 3.92887L8.57014 0.728068C8.49403 0.655217 8.4043 0.598111 8.30607 0.560026C8.11125 0.479991 7.89274 0.479991 7.69792 0.560026C7.59969 0.598111 7.50996 0.655217 7.43385 0.728068L4.23306 3.92887C4.15845 4.00348 4.09926 4.09205 4.05888 4.18953C4.01851 4.28701 3.99772 4.39149 3.99772 4.49701C3.99772 4.60252 4.01851 4.707 4.05888 4.80448C4.09926 4.90197 4.15845 4.99054 4.23306 5.06515C4.30766 5.13976 4.39624 5.19894 4.49372 5.23932C4.5912 5.2797 4.69568 5.30048 4.8012 5.30048C4.90671 5.30048 5.01119 5.2797 5.10867 5.23932C5.20616 5.19894 5.29473 5.13976 5.36934 5.06515ZM15.2038 8.498C14.9916 8.498 14.788 8.58231 14.638 8.73238C14.4879 8.88244 14.4036 9.08598 14.4036 9.2982V14.0994C14.4036 14.3116 14.3193 14.5152 14.1692 14.6652C14.0192 14.8153 13.8156 14.8996 13.6034 14.8996H2.4006C2.18837 14.8996 1.98484 14.8153 1.83477 14.6652C1.68471 14.5152 1.6004 14.3116 1.6004 14.0994V9.2982C1.6004 9.08598 1.51609 8.88244 1.36603 8.73238C1.21596 8.58231 1.01243 8.498 0.8002 8.498C0.587973 8.498 0.384439 8.58231 0.234373 8.73238C0.0843065 8.88244 0 9.08598 0 9.2982V14.0994C0 14.7361 0.25292 15.3467 0.703119 15.7969C1.15332 16.2471 1.76392 16.5 2.4006 16.5H13.6034C14.2401 16.5 14.8507 16.2471 15.3009 15.7969C15.7511 15.3467 16.004 14.7361 16.004 14.0994V9.2982C16.004 9.08598 15.9197 8.88244 15.7696 8.73238C15.6196 8.58231 15.416 8.498 15.2038 8.498Z" fill="#818486"/>
</svg>
